PathFileType	4	(X/Y/Z)	D:\TRACE\v60_Jaco2_6-2-23\BothDRS_Motion1_6-platform.trc
DataRate	CameraRate	NumFrames	NumMarkers	Units	OrigDataRate	OrigDataStartFrame	OrigNumFrames
100.00	100.00	      60	5	mm	100.00	5626	      7500
Frame#	Time	Left_Front			Right_Front			Left_Aft			Right_Aft			Post			
		X1	Y1	Z1	X2	Y2	Z2	X3	Y3	Z3	X4	Y4	Z4	X5	Y5	Z5	

5626	56.250	-759.65375	-17.95208	-645.05688	810.47229	-16.06720	-650.26453	-667.63354	25.47742	489.32492	774.33453	26.14747	498.89838	25.88393	1267.85425	-1019.16992	
5627	56.260	-758.86957	-17.69135	-644.92914	810.89618	-15.69520	-650.14447	-666.61670	24.95567	489.35938	774.82843	26.04035	498.97797	26.59000	1267.96387	-1019.07538	
5628	56.270	-758.27771	-17.34038	-645.10004	811.60144	-15.54770	-650.12708	-666.27228	25.20793	489.27090	775.64594	25.79409	498.93723	27.24331	1268.46643	-1019.02045	
5629	56.280	-757.70038	-17.49568	-645.07269	812.44629	-15.67171	-650.08490	-665.77063	25.24025	489.36362	776.37274	25.67354	498.97043	27.73764	1268.77271	-1018.62360	
5630	56.290	-757.12677	-17.28427	-645.21057	813.01593	-15.36791	-650.13342	-665.12744	25.05157	489.43503	777.07489	25.57063	499.05347	28.41645	1269.03723	-1018.24915	
5631	56.300	-756.73254	-17.08781	-645.18561	813.49500	-15.30778	-650.16492	-664.68573	24.81986	489.56213	777.43170	25.39727	499.06357	28.90717	1269.19763	-1017.81903	
5632	56.310	-756.08954	-16.78280	-645.05438	814.12042	-15.10087	-650.14764	-664.11188	24.67672	489.56247	777.83948	25.15587	499.14557	29.66562	1269.39844	-1017.60791	
5633	56.320	-755.55377	-16.62671	-644.68079	814.51672	-14.76674	-649.98212	-663.50403	24.57372	489.58658	778.41284	25.08719	498.95621	30.42751	1269.73596	-1017.00708	
5634	56.330	-754.87024	-16.54419	-644.67767	815.08185	-14.39313	-649.93860	-663.15680	24.50727	489.61005	779.50299	25.31818	499.21411	30.71380	1269.99829	-1016.48999	
5635	56.340	-754.31744	-16.18843	-644.91797	815.47626	-14.26930	-649.99609	-662.46332	24.39666	489.65430	780.09729	25.28365	499.16705	31.25293	1270.30701	-1016.25201	
5636	56.350	-754.10077	-16.28710	-644.82977	816.17761	-14.20595	-649.92853	-662.18878	24.23812	489.66772	780.48993	25.33094	498.86813	31.38081	1270.65491	-1015.64465	
5637	56.360	-753.72461	-15.99416	-644.90588	816.56470	-13.89766	-649.91571	-661.82404	24.13403	489.69403	780.63190	24.72633	499.27646	32.22656	1271.08191	-1014.97833	
5638	56.370	-753.13220	-15.66095	-644.80060	816.77673	-13.69033	-649.84967	-661.27588	24.02917	489.69922	780.91174	24.55446	499.31497	32.46128	1271.40747	-1014.59521	
5639	56.380	-752.90625	-15.50343	-644.61163	817.12683	-13.38463	-649.88220	-660.79321	23.86576	489.74722	781.31952	24.37288	499.43625	32.84122	1271.73914	-1014.15845	
5640	56.390	-752.41547	-15.35766	-644.37518	817.64746	-13.01714	-649.64691	-660.78839	24.05141	489.65741	781.88831	24.20006	499.57455	33.02955	1271.96655	-1013.84283	
5641	56.400	-752.38995	-15.13644	-644.43109	817.91370	-12.82076	-649.63068	-660.29999	23.36508	489.85828	782.27661	24.10219	499.61325	33.31373	1272.50781	-1013.07520	
5642	56.410	-752.01709	-15.03619	-644.40759	818.15344	-12.74107	-649.58240	-659.99646	23.17623	489.94217	782.39563	23.93995	499.64386	33.74087	1272.92065	-1012.37421	
5643	56.420	-751.44360	-14.65675	-644.54755	818.51898	-12.66225	-649.42450	-659.63495	22.96719	490.07236	782.54401	23.71508	499.64157	34.08544	1273.18933	-1011.94684	
5644	56.430	-751.29913	-14.55338	-644.24738	818.75629	-12.37237	-649.43134	-659.38379	22.81237	490.24771	782.71051	23.58561	499.74921	34.27602	1273.62219	-1011.45636	
5645	56.440	-751.18793	-14.16593	-644.16962	819.13318	-12.18570	-649.40466	-659.20404	22.76874	490.27603	782.97510	23.44360	499.82571	34.66938	1273.90137	-1011.00903	
5646	56.450	-750.97504	-13.94846	-644.20709	819.29736	-11.95121	-649.39771	-659.05902	22.68577	490.23163	783.20544	23.26418	499.85388	34.85605	1274.20996	-1010.59399	
5647	56.460	-750.74176	-13.85778	-644.27997	819.40503	-11.79327	-649.37457	-659.16229	22.94720	490.17648	783.30743	23.10199	499.87100	34.90863	1274.44031	-1009.98706	
5648	56.470	-750.50922	-13.56819	-644.32257	819.30121	-11.60798	-649.45752	-658.87518	22.59905	490.31412	783.27704	22.80640	499.94196	34.96017	1274.75671	-1009.43597	
5649	56.480	-750.20172	-13.20111	-644.29163	819.39124	-11.38264	-649.37476	-658.75800	22.43444	490.41895	783.04510	22.59433	500.08749	35.12691	1275.07214	-1009.13739	
5650	56.490	-750.20264	-12.87902	-644.15247	819.48785	-10.97783	-649.24872	-658.63770	22.32607	490.50012	783.21069	22.43393	500.15497	35.34567	1275.57593	-1008.61523	
5651	56.500	-750.26678	-12.58217	-643.99274	819.59875	-10.57584	-649.21326	-658.56543	22.16288	490.50110	783.23663	22.41187	500.18884	35.31776	1276.09888	-1008.37769	
5652	56.510	-750.29480	-12.45269	-643.95923	819.66425	-10.26108	-649.20459	-658.52808	21.89829	490.60663	783.97040	22.62674	500.32043	35.13030	1276.49146	-1008.03424	
5653	56.520	-750.28046	-12.37806	-643.94214	819.65247	-10.15566	-649.20160	-658.47601	21.58928	490.65967	783.66699	22.17407	500.52695	35.07165	1276.77771	-1007.59186	
5654	56.530	-750.24133	-12.41187	-644.05261	819.58337	-10.00140	-649.20117	-658.43988	21.27037	490.73825	783.63995	21.91284	500.62448	35.24678	1277.27502	-1006.97864	
5655	56.540	-750.27954	-11.97306	-643.82349	819.61676	-9.76542	-649.06451	-658.43457	21.11360	490.80899	783.74426	21.74293	500.65857	35.48916	1277.55396	-1006.30621	
5656	56.550	-750.32990	-11.58451	-643.66730	819.50574	-9.53790	-649.10199	-658.46686	20.98158	490.89301	783.76654	21.56167	500.73752	35.62726	1277.89722	-1005.86346	
5657	56.560	-750.37225	-11.37213	-643.55829	819.57629	-9.25654	-648.96808	-658.51581	20.85257	490.93848	783.82996	21.30325	500.83200	35.47094	1278.24097	-1005.05548	
5658	56.570	-750.36188	-11.23759	-643.58868	819.55103	-8.93910	-648.90564	-658.45966	20.58504	490.92795	783.98035	20.96546	500.88959	34.67896	1278.75354	-1004.50220	
5659	56.580	-750.30304	-10.82868	-643.66144	819.53082	-8.76119	-648.87543	-658.45087	20.40784	490.99213	783.73944	20.82964	500.87085	35.32447	1279.25061	-1003.63794	
5660	56.590	-750.35522	-10.44619	-643.64423	819.46851	-8.50191	-648.82953	-658.42944	20.22701	491.00812	783.63977	20.60720	500.97223	35.11596	1279.75549	-1002.96533	
5661	56.600	-750.48779	-9.98858	-643.45325	819.42725	-8.01568	-648.60498	-658.51233	20.08158	491.08740	783.61401	20.50073	501.05829	34.87757	1280.01660	-1002.35187	
5662	56.610	-750.90057	-9.47413	-643.39697	819.15143	-7.64197	-648.50092	-658.65375	19.79971	491.26059	783.39307	20.30707	501.09198	34.80891	1280.48682	-1001.73175	
5663	56.620	-751.25165	-9.09078	-643.36035	818.87335	-7.41186	-648.39923	-659.03992	19.66002	491.28796	782.93573	20.02178	501.25250	34.66048	1280.96765	-1001.02869	
5664	56.630	-751.48553	-8.98702	-643.39502	818.83850	-7.28134	-648.14948	-659.28973	19.40691	491.38229	782.67291	19.80239	501.44034	34.04347	1281.60364	-1000.30988	
5665	56.640	-751.72595	-8.91240	-643.39966	818.56982	-7.34328	-648.16595	-659.38812	19.11432	491.36365	782.47522	19.59881	501.54648	33.92008	1282.02026	-1000.10394	
5666	56.650	-751.96979	-8.75187	-643.31964	818.15887	-7.03179	-648.28711	-659.77563	18.77276	491.43561	782.34979	19.50571	501.62131	33.79231	1282.42834	-999.39929	
5667	56.660	-752.17419	-8.29988	-643.17480	817.82111	-6.24823	-648.21014	-660.31580	18.86999	491.63333	782.16968	19.28757	501.64795	33.78005	1282.73340	-998.46741	
5668	56.670	-752.45911	-7.77173	-642.99011	817.65918	-6.08345	-648.24762	-660.57312	18.84930	491.60715	781.88354	18.97497	501.70645	33.24488	1283.27869	-997.91998	
5669	56.680	-752.67273	-7.62192	-642.96661	817.38196	-5.82031	-648.33441	-661.34497	19.42656	491.18390	781.65411	18.89264	501.73489	32.86428	1283.75073	-997.08923	
5670	56.690	-752.90686	-7.77896	-642.85529	817.05597	-5.65893	-648.30182	-660.90009	18.09963	491.75751	781.51794	18.65044	501.74207	32.67223	1284.38367	-996.56323	
5671	56.700	-753.38446	-7.58510	-642.98151	816.73712	-5.39486	-648.16083	-661.20233	17.85741	491.83920	780.50372	18.42970	501.91498	32.35619	1284.72595	-995.88324	
5672	56.710	-753.82324	-7.16956	-642.69006	816.32208	-5.21800	-647.98773	-661.75250	17.63004	491.92041	780.25684	18.25003	501.93079	31.76926	1285.01038	-995.03992	
5673	56.720	-754.24524	-6.70217	-642.47034	815.96674	-4.90898	-647.76660	-662.30695	17.54065	492.07028	780.00977	17.96887	502.03229	31.46544	1285.59741	-994.55414	
5674	56.730	-754.64905	-6.26530	-642.43298	815.59497	-4.50230	-647.71576	-662.72290	17.54345	492.28256	779.59320	17.82533	502.21292	31.29090	1285.90454	-994.23035	
5675	56.740	-755.01581	-5.85730	-642.49683	815.13403	-4.09648	-647.66302	-663.02484	17.38074	492.33731	779.42877	17.65623	502.21991	31.02963	1286.38232	-993.66211	
5676	56.750	-755.28931	-5.53402	-642.65875	814.62781	-3.86637	-647.68854	-663.44171	17.25207	492.34225	778.73474	17.41596	501.82675	30.14827	1286.85046	-993.29541	
5677	56.760	-755.67474	-5.31571	-642.73114	814.15314	-3.62037	-647.61633	-663.92883	16.95951	492.41980	778.33130	17.25692	502.30508	29.68331	1287.32349	-992.92712	
5678	56.770	-756.12012	-4.91490	-642.42554	813.76440	-3.20784	-647.57477	-664.32098	16.66004	492.47986	777.78064	16.90730	502.40591	29.35909	1287.72388	-992.10999	
5679	56.780	-756.80176	-4.43062	-642.17242	813.52167	-2.91031	-647.43604	-664.85547	16.55629	492.61700	777.40112	16.58071	502.56168	29.34598	1288.10266	-991.35333	
5680	56.790	-757.24890	-4.21168	-642.06158	813.09991	-2.55816	-647.37762	-665.44983	16.53357	492.71643	777.17102	16.44110	502.62274	28.57398	1288.69690	-990.58966	
5681	56.800	-757.61444	-3.99153	-642.01007	812.55554	-2.18501	-647.33411	-665.98041	16.29135	492.71573	776.81451	16.23408	502.71249	28.01336	1289.18982	-989.89569	
5682	56.810	-758.20746	-3.66547	-642.14679	811.91742	-1.93603	-647.30029	-666.27734	16.04098	492.88022	775.74280	16.07807	502.89114	27.55385	1289.88770	-988.85785	
5683	56.820	-758.62305	-3.40571	-642.11914	811.51776	-1.65527	-646.97040	-666.88586	15.73365	493.08859	775.34784	15.79842	502.96164	26.95990	1290.44165	-987.93927	
5684	56.830	-759.02325	-3.10455	-641.86591	810.79633	-1.46275	-647.02765	-667.11658	15.23446	493.29010	774.81744	15.46350	503.02164	26.44031	1290.89746	-987.02515	
5685	56.840	-759.68695	-2.81454	-641.78632	810.34998	-1.08616	-647.03296	-667.92230	15.16385	493.09299	774.51489	15.24558	503.01587	26.49034	1291.25061	-986.14166	
